{"asset":{"version":"2.0","generator":"THREE.GLTFExporter r172"},"scenes":[{"nodes":[0]}],"scene":0,"nodes":[{"mesh":0}],"bufferViews":[{"buffer":0,"byteOffset":0,"byteLength":4536,"target":34962,"byteStride":12},{"buffer":0,"byteOffset":4536,"byteLength":756,"target":34963}],"buffers":[{"byteLength":5292,"uri":"data:application/octet-stream;base64,"}],"accessors":[{"bufferView":0,"componentType":5126,"count":378,"max":[6.699999809265137,5.5,6.699999809265137],"min":[-6.699999809265137,0.5500000715255737,-6.699999809265137],"type":"VEC3"},{"bufferView":1,"componentType":5123,"count":378,"max":[377],"min":[0],"type":"SCALAR"}],"materials":[{"pbrMetallicRoughness":{"metallicFactor":0,"roughnessFactor":1}}],"meshes":[{"primitives":[{"mode":4,"attributes":{"POSITION":0},"indices":1,"material":0}]}]}