{"asset":{"version":"2.0","generator":"THREE.GLTFExporter r172"},"scenes":[{"nodes":[0]}],"scene":0,"nodes":[{"mesh":0}],"bufferViews":[{"buffer":0,"byteOffset":0,"byteLength":59544,"target":34962,"byteStride":12},{"buffer":0,"byteOffset":59544,"byteLength":9924,"target":34963}],"buffers":[{"byteLength":69468,"uri":"data:application/octet-stream;base64,"}],"accessors":[{"bufferView":0,"componentType":5126,"count":4962,"max":[7.335000514984131,3.8000001907348633,7.350000381469727],"min":[-7.364999771118164,0.5500000715255737,-7.349999904632568],"type":"VEC3"},{"bufferView":1,"componentType":5123,"count":4962,"max":[4961],"min":[0],"type":"SCALAR"}],"materials":[{"pbrMetallicRoughness":{"metallicFactor":0,"roughnessFactor":1}}],"meshes":[{"primitives":[{"mode":4,"attributes":{"POSITION":0},"indices":1,"material":0}]}]}
