{"asset":{"version":"2.0","generator":"THREE.GLTFExporter r172"},"scenes":[{"nodes":[0]}],"scene":0,"nodes":[{"mesh":0}],"bufferViews":[{"buffer":0,"byteOffset":0,"byteLength":5976,"target":34962,"byteStride":12},{"buffer":0,"byteOffset":5976,"byteLength":996,"target":34963}],"buffers":[{"byteLength":6972,"uri":"data:application/octet-stream;base64,"}],"accessors":[{"bufferView":0,"componentType":5126,"count":498,"max":[6.885000705718994,3.9000000953674316,6.90000057220459],"min":[-6.914999961853027,0.7000000476837158,-6.900000095367432],"type":"VEC3"},{"bufferView":1,"componentType":5123,"count":498,"max":[497],"min":[0],"type":"SCALAR"}],"materials":[{"pbrMetallicRoughness":{"metallicFactor":0,"roughnessFactor":1}}],"meshes":[{"primitives":[{"mode":4,"attributes":{"POSITION":0},"indices":1,"material":0}]}]}
