{"asset":{"version":"2.0","generator":"THREE.GLTFExporter r172"},"scenes":[{"nodes":[0]}],"scene":0,"nodes":[{"mesh":0}],"bufferViews":[{"buffer":0,"byteOffset":0,"byteLength":11088,"target":34962,"byteStride":12},{"buffer":0,"byteOffset":11088,"byteLength":1848,"target":34963}],"buffers":[{"byteLength":12936,"uri":"data:application/octet-stream;base64,"}],"accessors":[{"bufferView":0,"componentType":5126,"count":924,"max":[6.735000133514404,4,6.75],"min":[-6.764999866485596,0.625,-6.75],"type":"VEC3"},{"bufferView":1,"componentType":5123,"count":924,"max":[923],"min":[0],"type":"SCALAR"}],"materials":[{"pbrMetallicRoughness":{"metallicFactor":0,"roughnessFactor":1}}],"meshes":[{"primitives":[{"mode":4,"attributes":{"POSITION":0},"indices":1,"material":0}]}]}
