{"asset":{"version":"2.0","generator":"THREE.GLTFExporter r172"},"scenes":[{"nodes":[0]}],"scene":0,"nodes":[{"mesh":0}],"bufferViews":[{"buffer":0,"byteOffset":0,"byteLength":2052,"target":34962,"byteStride":12},{"buffer":0,"byteOffset":2052,"byteLength":344,"target":34963}],"buffers":[{"byteLength":2396,"uri":"data:application/octet-stream;base64,"}],"accessors":[{"bufferView":0,"componentType":5126,"count":171,"max":[7.100000381469727,5.700000286102295,7.100000381469727],"min":[-7.099999904632568,0.7000000476837158,-7.099999904632568],"type":"VEC3"},{"bufferView":1,"componentType":5123,"count":171,"max":[170],"min":[0],"type":"SCALAR"}],"materials":[{"pbrMetallicRoughness":{"metallicFactor":0,"roughnessFactor":1}}],"meshes":[{"primitives":[{"mode":4,"attributes":{"POSITION":0},"indices":1,"material":0}]}]}
