{"asset":{"version":"2.0","generator":"THREE.GLTFExporter r172"},"scenes":[{"nodes":[0]}],"scene":0,"nodes":[{"mesh":0}],"bufferViews":[{"buffer":0,"byteOffset":0,"byteLength":12744,"target":34962,"byteStride":12},{"buffer":0,"byteOffset":12744,"byteLength":2124,"target":34963}],"buffers":[{"byteLength":14868,"uri":"data:application/octet-stream;base64,"}],"accessors":[{"bufferView":0,"componentType":5126,"count":1062,"max":[7.474999904632568,3.8000001907348633,7.469999313354492],"min":[-7.484999656677246,0.5500000715255737,-7.46999979019165],"type":"VEC3"},{"bufferView":1,"componentType":5123,"count":1062,"max":[1061],"min":[0],"type":"SCALAR"}],"materials":[{"pbrMetallicRoughness":{"metallicFactor":0,"roughnessFactor":1}}],"meshes":[{"primitives":[{"mode":4,"attributes":{"POSITION":0},"indices":1,"material":0}]}]}
